<svg width="23" height="24" viewBox="0 0 23 24" fill="none" xmlns="http://www.w3.org/2000/svg">
<path d="M10.542 4.33337H3.83366C3.32533 4.33337 2.83782 4.53531 2.47837 4.89475C2.11893 5.2542 1.91699 5.74171 1.91699 6.25004V19.6667C1.91699 20.175 2.11893 20.6625 2.47837 21.022C2.83782 21.3814 3.32533 21.5834 3.83366 21.5834H17.2503C17.7587 21.5834 18.2462 21.3814 18.6056 21.022C18.9651 20.6625 19.167 20.175 19.167 19.6667V12.9584" stroke="#e7a884" stroke-width="2" stroke-linecap="round" stroke-linejoin="round"/>
<path d="M17.7295 2.89585C18.1107 2.5146 18.6278 2.30042 19.167 2.30042C19.7062 2.30042 20.2232 2.5146 20.6045 2.89585C20.9857 3.2771 21.1999 3.79418 21.1999 4.33335C21.1999 4.87251 20.9857 5.3896 20.6045 5.77085L11.5003 14.875L7.66699 15.8333L8.62533 12L17.7295 2.89585Z" stroke="#e7a884" stroke-width="2" stroke-linecap="round" stroke-linejoin="round"/>
</svg>
