<svg width="24" height="25" viewBox="0 0 24 25" fill="none" xmlns="http://www.w3.org/2000/svg">
<path d="M22.0004 17.42V20.42C22.0016 20.6985 21.9445 20.9741 21.8329 21.2293C21.7214 21.4845 21.5577 21.7136 21.3525 21.9018C21.1473 22.0901 20.905 22.2335 20.6412 22.3227C20.3773 22.4119 20.0978 22.445 19.8204 22.42C16.7433 22.0856 13.7874 21.0341 11.1904 19.35C8.77425 17.8146 6.72576 15.7661 5.19042 13.35C3.5004 10.7412 2.44866 7.77097 2.12042 4.67997C2.09543 4.40344 2.1283 4.12474 2.21692 3.8616C2.30555 3.59846 2.44799 3.35666 2.63519 3.1516C2.82238 2.94653 3.05023 2.78268 3.30421 2.6705C3.5582 2.55831 3.83276 2.50024 4.11042 2.49997H7.11042C7.59573 2.4952 8.06621 2.66705 8.43418 2.98351C8.80215 3.29996 9.0425 3.73942 9.11042 4.21997C9.23704 5.18004 9.47187 6.1227 9.81042 7.02997C9.94497 7.3879 9.97408 7.77689 9.89433 8.15086C9.81457 8.52482 9.62928 8.86809 9.36042 9.13998L8.09042 10.41C9.51398 12.9135 11.5869 14.9864 14.0904 16.41L15.3604 15.14C15.6323 14.8711 15.9756 14.6858 16.3495 14.6061C16.7235 14.5263 17.1125 14.5554 17.4704 14.69C18.3777 15.0285 19.3204 15.2634 20.2804 15.39C20.7662 15.4585 21.2098 15.7032 21.527 16.0775C21.8441 16.4518 22.0126 16.9296 22.0004 17.42Z" stroke="#e7a884" stroke-width="2" stroke-linecap="round" stroke-linejoin="round"/>
</svg>
